<svg xmlns="http://www.w3.org/2000/svg" viewBox="0 0 352.1 91.32">
    <defs>
        <style>.cls-1{fill:#fff;}</style>
    </defs>
    <title>big-banner</title>
    <g id="logo">
        <path class="cls-1"
              d="M26.86,49.26l-10.81,11L10.93,90.1H0L15.38,1.23H26.31L18.92,43.47l8.79-9.59L56.15,1.23H70.07L34.73,41,56.09,90.1H43.76Z"/>
        <path class="cls-1" d="M86.55,57H62l1.65-9.22H88.2Z"/>
        <path class="cls-1" d="M106.14,80.52H140l-1.71,9.58H93.51L108.89,1.23h11Z"/>
        <path class="cls-1"
              d="M175.72,91.32q-11.11-.25-17.36-7.94t-6.44-21a65.28,65.28,0,0,1,.48-8.85L155,36.87q3-17.7,12-27.43A28.39,28.39,0,0,1,189.51,0q10.44.24,16.54,6.9t7.08,18.92l.19,3.29a73,73,0,0,1-.55,8.91l-2.63,16.91q-3.1,17.76-12,27.22T175.72,91.32ZM201.9,37.79l.55-5.92q.62-10.68-2.87-16.14c-2.31-3.65-5.9-5.55-10.74-5.71a18,18,0,0,0-15,6.5q-5.87,6.81-8.12,20.23l-2.62,17.64-.43,5q-.61,10.43,2.9,16.14t10.77,6q17.88.55,22.65-25Z"/>
        <path class="cls-1"
              d="M264.34,66.84h-29L224.55,90.1H213L256.1,1.23h9.4L277.89,90.1h-10.8Zm-24.53-9.58h23.37L258.48,17Z"/>
        <path class="cls-1"
              d="M290.41,90.1,305.79,1.23l19.89.06q14.1.31,21.06,10.41t4.88,26.52L349.49,52.5q-2.75,18.25-12.88,28T310.85,90.1Zm24.65-79.29L303,80.45l8,.07q11.36.12,18.44-6.81t9.21-20.91l2.26-14.89a63,63,0,0,0,.49-9.58q-.3-8.11-4.36-12.67t-11.63-4.79Z"/>
    </g>
</svg>