<svg xmlns="http://www.w3.org/2000/svg" viewBox="0 0 250 250">
    <defs>
        <style>
            .cls-1,.cls-3{fill:none;}.cls-2{fill:#231f20;}.cls-3{stroke:#231f20;stroke-miterlimit:10;stroke-width:5px;}.cls-4{fill:url(#k-load-1);}
        </style>
        <pattern id="k-load-1" data-name="k-load-1" width="250" height="250" patternUnits="userSpaceOnUse"
                 viewBox="0 0 250 250">
            <rect class="cls-1" width="250" height="250"/>
            <path class="cls-2"
                  d="M193.2,238.5a17.24,17.24,0,1,0,17.24,17.23A17.25,17.25,0,0,0,193.2,238.5m0-4.3a21.54,21.54,0,1,1-21.53,21.53A21.53,21.53,0,0,1,193.2,234.2Z"/>
            <path class="cls-2"
                  d="M257.18,174.88l-17.45,30.23h34.9l-17.45-30.23m0-8.62,24.92,43.15H232.27l24.91-43.15Z"/>
            <path class="cls-2" d="M176.37,151.58H146.22v30.16h30.15V151.58m4.31-4.31V186H141.91V147.27Z"/>
            <path class="cls-2"
                  d="M42.06,17.09,20.74,38.41,42.06,59.74,63.38,38.41,42.06,17.09m0-6.09L69.47,38.41,42.06,65.83,14.64,38.41,42.06,11Z"/>
            <path class="cls-2" d="M7.18,174.88l-17.45,30.23h34.9L7.18,174.88m0-8.62L32.1,209.41H-17.73L7.18,166.26Z"/>
            <path class="cls-2" d="M227.89,92.66H193l17.45,30.22,17.45-30.22m7.46-4.31L210.44,131.5,185.52,88.35Z"/>
            <path class="cls-2"
                  d="M193.2-11.5A17.24,17.24,0,1,0,210.44,5.73,17.25,17.25,0,0,0,193.2-11.5m0-4.3A21.54,21.54,0,1,1,171.67,5.73,21.53,21.53,0,0,1,193.2-15.8Z"/>
            <path class="cls-2"
                  d="M69.9,103.1a17.23,17.23,0,1,0,17.23,17.23A17.25,17.25,0,0,0,69.9,103.1m0-4.31a21.54,21.54,0,1,1-21.54,21.54A21.55,21.55,0,0,1,69.9,98.79Z"/>
            <line class="cls-3" x1="135.76" y1="44.29" x2="135.76" y2="87.37"/>
            <line class="cls-3" x1="157.3" y1="65.83" x2="114.22" y2="65.83"/>
            <line class="cls-3" x1="109.96" y1="209.41" x2="79.5" y2="239.88"/>
            <line class="cls-3" x1="109.96" y1="239.88" x2="79.5" y2="209.41"/>
        </pattern>
    </defs>
    <title>shapes-repeat</title>
    <g id="Layer_2" data-name="Layer 2">
        <rect class="cls-4" width="250" height="250"/>
    </g>
</svg>