<svg xmlns="http://www.w3.org/2000/svg" viewBox="0 0 88.32 88.47">
    <defs>
        <style>.cls-1{fill:#231f20;}</style>
    </defs>
    <title>steam-logo-icon</title>
    <g id="Layer_2" data-name="Layer 2">
        <g id="Layer_1-2" data-name="Layer 1">
            <path class="cls-1"
                  d="M44.08,0A44.23,44.23,0,0,0,0,40.69l23.71,9.8a12.49,12.49,0,0,1,7.05-2.18l.69,0L42,33.05v-.22A16.68,16.68,0,1,1,58.68,49.52H58.3l-15,10.73c0,.2,0,.4,0,.6a12.52,12.52,0,0,1-24.8,2.46l-17-7A44.24,44.24,0,1,0,44.08,0Z"/>
            <path class="cls-1"
                  d="M27.72,67.12l-5.43-2.24A9.4,9.4,0,1,0,27.43,52L33,54.35a6.92,6.92,0,1,1-5.32,12.77Z"/>
            <path class="cls-1"
                  d="M69.8,32.83A11.12,11.12,0,1,0,58.68,44,11.13,11.13,0,0,0,69.8,32.83Zm-19.45,0a8.35,8.35,0,1,1,8.35,8.35A8.35,8.35,0,0,1,50.35,32.82Z"/>
        </g>
    </g>
</svg>